# xmcd CD database file
#
# Track frame offsets:
#	150
#	75975
#	165823
#	191312
#	209381
#	240504
#	266265
#
# Disc length: 4255 seconds
#
# Revision: 0
# Processed by: cddbd v1.5.2PL0 Copyright (c) Steve Scherf et al.
# Submitted via: CDex 1.70beta2
#
DISCID=43109d07
DTITLE=The New Brubeck Quartet - A Cut Above (Vinyl Direktschnitt)
DYEAR=1978
DGENRE=Jazz
TTITLE0=Ellington Medley
TTITLE1=Forty Days and Sermon on the Mount
TTITLE2=Unisphere
TTITLE3=Three To Get Ready
TTITLE4=Blue Rondo a la Turk
TTITLE5=Unsquare Dance
TTITLE6=Take Five
EXTD=YEAR: 1978
EXTT0=
EXTT1=
EXTT2=
EXTT3=
EXTT4=
EXTT5=
EXTT6=
PLAYORDER=
